<?xml version="1.0" standalone="no"?>
<!DOCTYPE svg PUBLIC "-//W3C//DTD SVG 20010904//EN"
 "http://www.w3.org/TR/2001/REC-SVG-20010904/DTD/svg10.dtd">
<svg version="1.0" xmlns="http://www.w3.org/2000/svg"
 width="224.000000pt" height="225.000000pt" viewBox="0 0 224.000000 225.000000"
 preserveAspectRatio="xMidYMid meet">

<g transform="translate(0.000000,225.000000) scale(0.100000,-0.100000)"
fill="#000000" stroke="none">
<path d="M2118 1973 c7 -3 16 -2 19 1 4 3 -2 6 -13 5 -11 0 -14 -3 -6 -6z"/>
<path d="M2175 1970 c3 -5 13 -10 21 -10 8 0 12 5 9 10 -3 6 -13 10 -21 10 -8
0 -12 -4 -9 -10z"/>
<path d="M2061 1963 c28 -7 20 -53 -13 -81 -18 -15 -25 -28 -19 -32 20 -12
-37 -50 -75 -50 -30 0 -35 -3 -32 -17 4 -16 -1 -18 -44 -15 -41 3 -47 2 -42
-12 8 -20 7 -20 -46 -1 -23 8 -45 15 -47 15 -2 0 2 -7 11 -15 8 -8 23 -15 34
-15 33 0 53 -31 42 -65 l-10 -30 4 28 c2 20 -2 31 -16 38 -11 6 -22 8 -26 5
-3 -3 0 -6 7 -6 8 0 10 -7 6 -20 -4 -12 -2 -26 3 -33 19 -25 20 -43 2 -43 -12
0 -16 6 -13 21 2 11 -7 -2 -21 -29 -14 -27 -23 -53 -19 -59 3 -6 1 -7 -4 -4
-6 4 -14 0 -17 -9 -3 -8 -2 -12 4 -9 6 3 7 -1 4 -9 -3 -9 -9 -14 -13 -12 -11
7 -72 -124 -65 -136 5 -7 2 -8 -6 -3 -10 6 -12 4 -7 -8 3 -9 2 -16 -3 -14 -5
1 -115 -209 -245 -468 -131 -259 -244 -475 -252 -482 -21 -16 -43 -5 -43 22 0
13 23 132 50 266 52 249 52 267 10 255 -177 -49 -176 -49 -160 33 5 29 7 65 4
80 -4 18 -3 22 4 13 7 -10 11 -3 15 24 6 37 -1 62 -10 36 -3 -7 -11 -19 -19
-26 -8 -8 -13 -20 -11 -28 2 -7 -1 -3 -7 10 -5 12 -15 22 -20 22 -12 -1 -76
-56 -76 -66 0 -3 -14 -17 -31 -31 -21 -18 -27 -28 -18 -33 8 -6 6 -12 -10 -21
-12 -8 -21 -24 -21 -37 0 -22 -3 -24 -45 -20 -36 2 -44 0 -42 -12 1 -9 -7 -16
-21 -18 -13 -2 -21 -9 -19 -15 2 -7 12 -11 21 -9 16 3 16 1 2 -21 -9 -13 -13
-27 -9 -32 5 -4 2 -5 -5 -1 -7 5 -11 14 -8 21 3 8 -2 19 -9 25 -8 7 -13 22
-12 33 1 16 -3 22 -15 21 -10 -1 -18 2 -18 7 0 5 5 9 10 9 6 0 10 8 10 18 -1
15 -2 15 -15 -3 -16 -21 -14 -41 3 -38 6 2 9 -3 6 -11 -3 -7 2 -20 10 -29 9
-9 16 -21 16 -27 0 -22 124 -229 133 -223 6 3 7 1 3 -5 -6 -10 120 -243 255
-472 39 -65 49 -75 75 -78 17 -2 36 3 41 10 11 13 191 330 268 473 21 39 41
75 45 80 4 6 21 35 38 65 73 134 241 437 346 623 62 111 130 234 151 272 21
39 49 87 62 107 13 22 20 44 16 54 -4 11 -3 15 5 10 6 -4 25 22 49 66 21 40
37 74 36 75 -2 2 6 12 17 23 30 30 25 53 -12 65 -37 12 -68 9 -68 -7 0 -6 11
-8 25 -6 13 3 22 2 20 -2 -3 -5 2 -10 10 -14 8 -3 15 -1 15 4 0 6 5 10 12 10
9 0 9 -3 1 -11 -6 -6 -9 -19 -6 -28 3 -13 2 -12 -7 2 -6 9 -15 15 -21 12 -5
-4 -9 -2 -9 3 0 6 -15 13 -34 16 -19 4 -37 13 -40 21 -3 8 -13 14 -23 14 -15
-1 -15 -2 -2 -6z m9 -117 c0 -2 -7 -9 -15 -16 -13 -11 -14 -10 -9 4 5 14 24
23 24 12z m62 -18 c-5 -22 -4 -22 -24 1 -15 18 -14 19 6 17 17 -1 22 -6 18
-18z m-22 -33 c0 -5 -5 -3 -10 5 -5 8 -10 20 -10 25 0 6 5 3 10 -5 5 -8 10
-19 10 -25z m-7 -40 c-7 -21 -12 -19 -10 4 0 11 5 18 9 15 4 -3 5 -11 1 -19z
m-238 -75 c-3 -5 -10 -10 -16 -10 -5 0 -9 5 -9 10 0 6 7 10 16 10 8 0 12 -4 9
-10z m201 -2 c4 -7 3 -8 -4 -4 -7 4 -12 2 -12 -5 0 -7 -3 -10 -6 -6 -6 5 3 27
11 27 2 0 7 -5 11 -12z m-1087 -668 c0 -10 -3 -8 -9 5 -12 27 -12 43 0 25 5
-8 9 -22 9 -30z m-109 -44 c0 -2 -7 -9 -15 -16 -13 -11 -14 -10 -9 4 5 14 24
23 24 12z m-158 -178 c-8 -8 -9 -4 -5 13 4 13 8 18 11 10 2 -7 -1 -18 -6 -23z"/>
<path d="M1998 1953 c7 -3 16 -2 19 1 4 3 -2 6 -13 5 -11 0 -14 -3 -6 -6z"/>
<path d="M1918 1933 c7 -3 16 -2 19 1 4 3 -2 6 -13 5 -11 0 -14 -3 -6 -6z"/>
<path d="M1728 1903 c6 -2 18 -2 25 0 6 3 1 5 -13 5 -14 0 -19 -2 -12 -5z"/>
<path d="M1980 1865 c-10 -12 -10 -15 4 -15 9 0 16 7 16 15 0 8 -2 15 -4 15
-2 0 -9 -7 -16 -15z"/>
<path d="M1693 1733 c9 -2 23 -2 30 0 6 3 -1 5 -18 5 -16 0 -22 -2 -12 -5z"/>
<path d="M1740 1720 c0 -5 4 -10 9 -10 6 0 13 5 16 10 3 6 -1 10 -9 10 -9 0
-16 -4 -16 -10z"/>
<path d="M1698 1703 c7 -3 16 -2 19 1 4 3 -2 6 -13 5 -11 0 -14 -3 -6 -6z"/>
<path d="M1588 1683 c7 -3 16 -2 19 1 4 3 -2 6 -13 5 -11 0 -14 -3 -6 -6z"/>
<path d="M868 1233 c7 -3 16 -2 19 1 4 3 -2 6 -13 5 -11 0 -14 -3 -6 -6z"/>
<path d="M988 1233 c7 -3 16 -2 19 1 4 3 -2 6 -13 5 -11 0 -14 -3 -6 -6z"/>
<path d="M1032 1216 c7 -8 15 -12 17 -11 5 6 -10 25 -20 25 -5 0 -4 -6 3 -14z"/>
<path d="M620 955 c0 -8 2 -15 4 -15 2 0 6 7 10 15 3 8 1 15 -4 15 -6 0 -10
-7 -10 -15z"/>
</g>
</svg>
